# AST/ASF file generated using VICON BodyLanguage
# -----------------------------------------------
:version 1.10
:name VICON
:units
  mass 1.0
  length 0.45
  angle deg
:documentation
   .ast/.asf automatically generated from VICON data using
   VICON BodyBuilder and BodyLanguage model FoxedUp or BRILLIANT.MOD
:root
   order TX TY TZ RX RY RZ
   axis XYZ
   position 0 0 0  
   orientation 0 0 0 
:bonedata
  begin
     id 1 
     name lhipjoint
     direction 0.621036 -0.695554 0.361275 
     length 2.46325 
     axis 0 0 0  XYZ
  end
  begin
     id 2 
     name lfemur
     direction 0.34202 -0.939693 0  
     length 6.54784  
     axis 0 0 20  XYZ
    dof rx ry rz
    limits (-160.0 20.0)
           (-70.0 70.0)
           (-60.0 70.0)
  end
  begin
     id 3 
     name ltibia
     direction 0.34202 -0.939693 0   
     length 7.84737   
     axis 0 0 20   XYZ
    dof rx
    limits (-10.0 170.0)
  end
  begin
     id 4 
     name lfoot
     direction 0.0790693 -0.217241 0.97291   
     length 2.59747   
     axis -90 7.62852e-016 20   XYZ
    dof rx rz
    limits (-45.0 90.0)
           (-70.0 20.0)
  end
  begin
     id 5 
     name ltoes
     direction 1.53572e-011 -4.21898e-011 1   
     length 1.29919   
     axis -90 7.62852e-016 20   XYZ
    dof rx
    limits (-90.0 20.0)
  end
  begin
     id 6 
     name rhipjoint
     direction -0.602353 -0.708375 0.367935   
     length 2.41867  
     axis 0 0 0  XYZ 
  end
  begin
     id 7 
     name rfemur
     direction -0.34202 -0.939693 0   
     length 6.92065   
     axis 0 0 -20   XYZ
    dof rx ry rz
    limits (-160.0 20.0)
           (-70.0 70.0)
           (-70.0 60.0)
  end
  begin
     id 8 
     name rtibia
     direction -0.34202 -0.939693 0   
     length 7.88883   
     axis 0 0 -20   XYZ
    dof rx
    limits (-10.0 170.0)
 end
 begin
     id 9 
     name rfoot
     direction -0.0768692 -0.211196 0.974416   
     length 2.43714  
     axis -90 -7.62852e-016 -20   XYZ
    dof rx rz
    limits (-45.0 90.0)
           (-20.0 70.0)
  end
  begin
     id 10 
     name rtoes
     direction -1.53575e-011 -4.21933e-011 1   
     length 1.22113   
     axis -90 -7.62852e-016 -20   XYZ
    dof rx
    limits (-90.0 20.0)
  end
  begin
     id 11 
     name lowerback
     direction 0.0197937 0.98943 -0.143655   
     length 2.16931   
     axis 0 0 0   XYZ
    dof rx ry rz
    limits (-20.0 45.0)
           (-30.0 30.0)
           (-30.0 30.0)
  end
  begin
     id 12 
     name upperback
     direction -0.00183968 0.999975 0.00684288   
     length 2.17221   
     axis 0 0 0   XYZ
    dof rx ry rz
    limits (-20.0 45.0)
           (-30.0 30.0)
           (-30.0 30.0)
  end
  begin
     id 13 
     name thorax
     direction -0.00950244 0.997208 0.0740685   
     length 2.22549   
     axis 0 0 0   XYZ
    dof rx ry rz
    limits (-20.0 45.0)
           (-30.0 30.0)
           (-30.0 30.0)
  end
  begin
     id 14 
     name lowerneck
     direction 0.0218238 0.996215 0.0841425   
     length 1.77269   
     axis 0 0 0   XYZ
    dof rx ry rz
    limits (-20.0 45.0)
           (-30.0 30.0)
           (-30.0 30.0)
  end
  begin
     id 15 
     name upperneck
     direction -0.00430652 0.994214 -0.107332   
     length 1.76534   
     axis 0 0 0   XYZ
    dof rx ry rz
    limits (-20.0 45.0)
           (-30.0 30.0)
           (-30.0 30.0)
  end
  begin
     id 16
     name head
     direction -0.00328946 0.998959 -0.0454998  
     length 1.82634  
     axis 0 0 0   XYZ
    dof rx ry rz
    limits (-20.0 45.0)
           (-30.0 30.0)
           (-30.0 30.0)
  end
  begin
     id 17 
     name lclavicle
     direction 0.970962 0.239191 0.00450212  
     length 3.84872  
     axis 0 0 0   XYZ
    dof ry rz
    limits (-20.0 10.0)
           (0.0 20.0)
  end
  begin
     id 18 
     name lhumerus
     direction 1 -4.48966e-011 5.74696e-028   
     length 5.22771   
     axis 180 -30 -90   XYZ
    dof rx ry rz
    limits (-60.0 90.0)
           (-90.0 90.0)
           (-90.0 90.0)
  end
  begin
     id 19
     name lradius
     direction 1 -4.4896e-011 4.25109e-027   
     length 3.45251   
     axis 180 -30 -90   XYZ
    dof rx
    limits (-10.0 170.0)
  end
  begin
     id 20
     name lwrist
     direction 1 -4.48971e-011 1.15382e-027   
     length 1.72626   
     axis -5.52449e-016 90 90   XYZ
    dof ry
    limits (-180.0 0.0)
 end
  begin
     id 21 
     name lhand
     direction 1 -4.49034e-011 2.30765e-027   
     length 0.552119   
     axis -1.47248e-015 90 90   XYZ
    dof rx rz
    limits (-90.0 90.0)
           (-45.0 45.0)
  end
  begin
     id 22 
     name lfingers
     direction 1 -4.48951e-011 4.61529e-027   
     length 0.445133   
     axis -2.94495e-015 90 90   XYZ
    dof rx
    limits (0.0 90.0)
  end
  begin
     id 23
     name lthumb
     direction 0.707107 -6.34991e-011 0.707107   
     length 0.639124   
     axis -90 45 2.85299e-015   XYZ
    dof rx rz
    limits (-45.0 45.0)
           (-45.0 45.0)
  end
  begin
     id 24 
     name rclavicle
     direction -0.97424 0.222511 -0.0366699   
     length 3.73439  
     axis 0 0 0   XYZ 
    dof ry rz
    limits (-10.0 20.0)
           (-20.0 0.0)
  end
  begin
     id 25 
     name rhumerus
     direction -1 -4.48956e-011 -4.97258e-028  
     length 5.2398   
     axis 180 30 90   XYZ
    dof rx ry rz
    limits (-90.0 60.0)
           (-90.0 90.0)
           (-90.0 90.0)
  end
  begin
     id 26 
     name rradius
     direction -1 -4.4897e-011 -1.72611e-027   
     length 3.48042   
     axis 180 30 90   XYZ
    dof rx
    limits (-10.0 170.0)
  end
  begin
     id 27 
     name rwrist
     direction -1 -4.48976e-011 1.15382e-027   
     length 1.74021   
     axis -5.52449e-016 -90 -90   XYZ
    dof ry
    limits (-180.0 0.0)
  end
  begin
     id 28
     name rhand
     direction -1 -4.48963e-011 2.30765e-027   
     length 0.618713   
     axis -1.47248e-015 -90 -90   XYZ
    dof rx rz
    limits (-90.0 90.0)
           (-45.0 45.0)
  end
  begin
     id 29
     name rfingers
     direction -1 -4.4888e-011 4.61529e-027   
     length 0.498823   
     axis -2.94495e-015 -90 -90   XYZ
    dof rx
    limits (0.0 90.0)
  end
  begin
     id 30
     name rthumb
     direction -0.707107 -6.34968e-011 0.707107   
     length 0.716213   
     axis -90 -45 -2.85299e-015   XYZ
    dof rx rz
    limits (-45.0 45.0)
           (-45.0 45.0)
  end
:hierarchy
  begin
    root lhipjoint rhipjoint lowerback
    lhipjoint lfemur
    lfemur ltibia
    ltibia lfoot
    lfoot ltoes
    rhipjoint rfemur
    rfemur rtibia
    rtibia rfoot
    rfoot rtoes
    lowerback upperback
    upperback thorax
    thorax lowerneck lclavicle rclavicle
    lowerneck upperneck
    upperneck head
    lclavicle lhumerus
    lhumerus lradius
    lradius lwrist
    lwrist lhand lthumb
    lhand lfingers
    rclavicle rhumerus
    rhumerus rradius
    rradius rwrist
    rwrist rhand rthumb
    rhand rfingers
  end

#!OML:ASF G:\JayActor3\Patient Classification 1\Patient 1\Session 5\male.ASF
:FULLY-SPECIFIED
:DEGREES
27
root -40.812 17.4084 -5.02922 -108.554 85.7104 -134.77
lowerback 16.626 -1.05368 2.55015
upperback 4.82249 -0.692692 0.31016
thorax -4.19979 -0.242437 -0.987428
lowerneck 2.08376 -0.942736 1.35046
upperneck -12.1582 -0.711857 2.73505
head -4.36345 -0.464298 0.705982
rclavicle 1.5704e-014 -4.96962e-015
rhumerus -30.2996 2.84368 -88.2196
rradius 39.0315
rwrist -8.20595
rhand -20.4748 -9.11214
rfingers 7.12502
rthumb 5.88142 -39.0105
lclavicle 1.5704e-014 -4.96962e-015
lhumerus -30.8338 -0.552886 85.2977
lradius 32.6642
lwrist 27.8129
lhand -18.9896 11.541
lfingers 7.12502
lthumb 7.3152 41.3945
rfemur -45.826 4.9966 20.6768
rtibia 34.1819
rfoot -20.0599 -12.076
rtoes 21.5954
lfemur -38.2792 8.27891 -20.9671
ltibia 19.9123
lfoot -6.00409 1.42133
ltoes -5.69324
28
root -40.8288 17.4074 -5.02855 -108.438 85.6803 -135.101
lowerback 16.8353 -1.06912 2.55942
upperback 4.82392 -0.702026 0.307142
thorax -4.31031 -0.247079 -0.992339
lowerneck 2.23345 -0.942165 1.35561
upperneck -12.4367 -0.68974 2.77324
head -4.49529 -0.457338 0.721058
rclavicle -1.98785e-016 -2.3059e-014
rhumerus -30.288 2.89441 -88.2641
rradius 39.3217
rwrist -8.3609
rhand -20.5116 -9.06936
rfingers 7.12502
rthumb 5.84591 -38.9687
lclavicle -1.98785e-016 -2.3059e-014
lhumerus -30.825 -0.605521 85.2932
lradius 32.6136
lwrist 27.756
lhand -19.0385 11.5757
lfingers 7.12502
lthumb 7.268 41.4309
rfemur -46.3914 4.99182 20.6364
rtibia 34.1708
rfoot -19.9393 -12.159
rtoes 21.4947
lfemur -38.8912 8.36803 -21.104
ltibia 19.9229
lfoot -5.87611 1.29616
ltoes -5.44855
29
root -40.8443 17.4065 -5.02775 -108.443 85.6442 -135.543
lowerback 17.0369 -1.09008 2.57878
upperback 4.82165 -0.717492 0.30077
thorax -4.42096 -0.254902 -1.00525
lowerneck 2.37148 -0.940565 1.3637
upperneck -12.6906 -0.667168 2.81107
head -4.61658 -0.450152 0.735209
rclavicle 1.55052e-014 4.21423e-014
rhumerus -30.2864 2.95063 -88.3203
rradius 39.5938
rwrist -8.51025
rhand -20.5392 -9.03645
rfingers 7.12502
rthumb 5.81922 -38.9365
lclavicle 1.55052e-014 4.21423e-014
lhumerus -30.8268 -0.666831 85.2871
lradius 32.5651
lwrist 27.703
lhand -19.0647 11.6558
lfingers 7.12502
lthumb 7.24268 41.5119
rfemur -46.9338 4.99651 20.591
rtibia 34.1506
rfoot -19.8339 -12.2627
rtoes 21.3722
lfemur -39.4852 8.46895 -21.2494
ltibia 19.9245
lfoot -5.74665 1.14479
ltoes -5.2475
30
root -40.8577 17.4058 -5.02648 -108.664 85.6011 -136.18
lowerback 17.2418 -1.1196 2.60243
upperback 4.82 -0.743133 0.292885
thorax -4.53308 -0.267667 -1.01998
lowerneck 2.49141 -0.937021 1.36868
upperneck -12.9155 -0.643305 2.85147
head -4.72418 -0.442095 0.750332
rclavicle -1.25234e-014 -1.96797e-014
rhumerus -30.2912 3.01647 -88.3867
rradius 39.8418
rwrist -8.65578
rhand -20.5568 -9.0279
rfingers 7.12502
rthumb 5.80228 -38.9285
lclavicle -1.25234e-014 -1.96797e-014
lhumerus -30.8355 -0.730382 85.2788
lradius 32.5159
lwrist 27.6699
lhand -19.0689 11.7614
lfingers 7.12502
lthumb 7.23869 41.6176
rfemur -47.4355 5.0095 20.5384
rtibia 34.1238
rfoot -19.7524 -12.3889
rtoes 21.222
lfemur -40.0467 8.60392 -21.4165
ltibia 19.9143
lfoot -5.62757 0.934088
ltoes -5.03081
31
root -40.8696 17.4052 -5.02493 -108.955 85.5511 -136.872
lowerback 17.4305 -1.15131 2.62273
upperback 4.82375 -0.772111 0.292068
thorax -4.63079 -0.281784 -1.02468
lowerneck 2.59485 -0.93213 1.36482
upperneck -13.1211 -0.619406 2.89071
head -4.82175 -0.433357 0.766346
rclavicle -1.39149e-015 -1.63003e-014
rhumerus -30.2837 3.09231 -88.4502
rradius 40.0533
rwrist -8.795
rhand -20.5807 -9.01478
rfingers 7.12502
rthumb 5.77921 -38.916
lclavicle -1.39149e-015 -1.63003e-014
lhumerus -30.839 -0.783876 85.2785
lradius 32.4624
lwrist 27.6488
lhand -19.0715 11.8387
lfingers 7.12502
lthumb 7.23612 41.695
rfemur -47.9114 5.02902 20.4852
rtibia 34.0928
rfoot -19.6827 -12.5297
rtoes 21.0382
lfemur -40.5884 8.7822 -21.6058
ltibia 19.8912
lfoot -5.50446 0.663366
ltoes -4.8754
32
root -40.8802 17.4045 -5.02318 -109.267 85.4967 -137.576
lowerback 17.6027 -1.18239 2.64083
upperback 4.82911 -0.800894 0.296027
thorax -4.71786 -0.2957 -1.02313
lowerneck 2.68906 -0.926209 1.35303
upperneck -13.31 -0.595299 2.93187
head -4.91161 -0.424125 0.784219
rclavicle 5.96354e-015 5.96354e-016
rhumerus -30.2734 3.17416 -88.5116
rradius 40.2315
rwrist -8.92609
rhand -20.6224 -8.9891
rfingers 7.12502
rthumb 5.73891 -38.8914
lclavicle 5.96354e-015 5.96354e-016
lhumerus -30.8381 -0.828415 85.2848
lradius 32.4025
lwrist 27.6429
lhand -19.0793 11.8549
lfingers 7.12502
lthumb 7.22856 41.7115
rfemur -48.3678 5.04814 20.4344
rtibia 34.0589
rfoot -19.6145 -12.675
rtoes 20.8152
lfemur -41.1144 8.98513 -21.808
ltibia 19.8578
lfoot -5.38393 0.355706
ltoes -4.70928
33
root -40.8902 17.4038 -5.02139 -109.599 85.4373 -138.306
lowerback 17.748 -1.21214 2.66334
upperback 4.82674 -0.828545 0.301606
thorax -4.79882 -0.309418 -1.02266
lowerneck 2.78311 -0.92115 1.34025
upperneck -13.4844 -0.572845 2.97516
head -4.99639 -0.415804 0.802989
rclavicle -1.70955e-014 -2.98177e-014
rhumerus -30.2672 3.24942 -88.5725
rradius 40.374
rwrist -9.03888
rhand -20.6679 -8.95628
rfingers 7.12502
rthumb 5.69501 -38.8598
lclavicle -1.70955e-014 -2.98177e-014
lhumerus -30.8288 -0.864596 85.2986
lradius 32.3233
lwrist 27.6502
lhand -19.1054 11.8243
lfingers 7.12502
lthumb 7.20343 41.6816
rfemur -48.8253 5.05156 20.3906
rtibia 34.0205
rfoot -19.5361 -12.8121
rtoes 20.5576
lfemur -41.6495 9.21251 -22.0301
ltibia 19.8197
lfoot -5.25581 0.00631877
ltoes -4.61196
